<?xml version="1.0" encoding="utf-8"?>

<svg width="1297px" height="729px" viewBox="0 0 1297 729" version="1.1" xmlns="http://www.w3.org/2000/svg" xmlns:xlink="http://www.w3.org/1999/xlink">
    <g id="Page-1" stroke="none" stroke-width="1" fill="none" fill-rule="evenodd">
        <g id="blank" fill-rule="nonzero">
            <polygon id="Path" fill="#FFFFFF" points="1296.44 0.22 0.44 0.22 0.44 728.22 1296.44 728.22"></polygon>
            <path d="M919.1,568.19 C907.27,569.98 900.41,589.43 903.78,611.62 C907.15,633.81 919.46,650.35 931.29,648.55 C943.12,646.76 949.98,627.31 946.61,605.12 C943.24,582.93 930.93,566.39 919.1,568.19 Z" id="Path" fill="#000000" opacity="0.11"></path>
            <path d="M873.31,541.39 L880.44,519.99 L809.38,481.23 C800.84,476.57 797.04,466.57 799.93,457.58 L799.27,457.24 C788.79,451.87 784.65,439.02 790.02,428.55 L811.24,387.13 L811.32,386.96 L811.77,386.09 L746.63,367.48 C748.878129,376.722077 749.494058,386.2859 748.45,395.74 L741.13,461.58 C738.179344,488.150384 748.412462,514.483856 768.53,532.09 C788.521985,549.586023 798.760134,575.709153 795.98,602.13 L793.31,634.82 C791.486745,657.090555 797.61244,679.286899 810.6,697.47 L832.42,728.02 L904.42,728.02 L873.29,642.6 C862.339976,609.758697 862.339976,574.251303 873.29,541.41 L873.31,541.39 L873.31,541.39 Z M1149.8,177.83 L1149.77,177.73 C1148.43,172.7 1146.58,167.83 1144.41,163.09 L1103.65,82.8 C1094.41284,64.6069343 1090.41731,44.2034093 1092.11,23.87 L1094.11,5.68434189e-14 L995.64,5.68434189e-14 L998.33,9.59 C1003.13,26.72 1011.59,42.61 1023.13,56.15 L1036.1,71.37 C1036.89,72.3 1037.67,73.25 1038.42,74.21 C1038.74,74.62 1039.03,75.03 1039.34,75.44 C1039.76,76.01 1040.2,76.57 1040.6,77.14 C1040.97,77.66 1041.31,78.19 1041.67,78.72 C1041.99,79.2 1042.33,79.67 1042.64,80.16 C1043.08,80.85 1043.5,81.56 1043.92,82.26 C1044.12,82.6 1044.34,82.92 1044.53,83.26 C1045,84.07 1045.45,84.9 1045.89,85.73 C1046.02,85.97 1046.15,86.2 1046.28,86.43 C1046.77,87.38 1047.24,88.33 1047.7,89.3 C1047.76,89.43 1047.83,89.55 1047.89,89.68 C1048.37,90.7 1048.82,91.73 1049.25,92.77 C1049.28,92.84 1049.32,92.91 1049.35,92.99 C1049.8,94.08 1050.23,95.19 1050.63,96.3 C1050.63,96.32 1050.65,96.34 1050.65,96.36 C1053.91,105.43 1055.49,115.08 1055.14,124.85 L1055.14,124.98 C1055.11,125.78 1055.07,126.59 1055.02,127.4 C1054.96,128.25 1054.9,129.1 1054.82,129.95 L1052.05,160.4 C1051.94,161.58 1051.87,162.77 1051.81,163.95 L1051.78,164.59 C1051.73,165.73 1051.71,166.86 1051.71,168 L1051.71,168.64 C1051.71,169.81 1051.74,170.99 1051.8,172.16 L1051.8,172.21 C1051.86,173.38 1051.94,174.54 1052.05,175.71 C1052.07,175.9 1052.08,176.08 1052.1,176.27 C1052.21,177.41 1052.34,178.54 1052.5,179.67 C1052.53,179.86 1052.55,180.05 1052.58,180.24 C1052.75,181.41 1052.94,182.58 1053.15,183.74 C1053.37,184.92 1053.62,186.1 1053.9,187.26 L1053.99,187.66 C1054.26,188.8 1054.55,189.93 1054.87,191.06 C1054.91,191.21 1054.95,191.35 1055,191.5 C1055.67,193.84 1056.45,196.16 1057.32,198.43 C1057.35,198.5 1057.38,198.58 1057.4,198.65 C1057.84,199.78 1058.3,200.9 1058.78,202 C1058.82,202.1 1058.87,202.2 1058.91,202.3 C1059.92,204.59 1061.02,206.83 1062.23,209.02 C1062.24,209.04 1062.25,209.07 1062.27,209.09 C1062.87,210.18 1063.5,211.25 1064.15,212.32 C1064.19,212.39 1064.24,212.46 1064.28,212.53 C1065.61,214.7 1067.04,216.81 1068.57,218.86 C1069.68701,220.353064 1070.85093,221.810458 1072.06,223.23 C1072.09,223.27 1072.12,223.3 1072.16,223.34 C1073.55418,224.976361 1075.01543,226.554376 1076.54,228.07 L1077.37,228.9 L1087.45,216.81 C1090.11654,213.610712 1094.67138,212.739934 1098.33,214.73 L1131.9,232.12 L1133.74,233.3 L1133.8,233.34 L1147.08,241.87 L1150.6,226.63 C1154.31502,210.534553 1154.04038,193.775084 1149.8,177.81 L1149.8,177.83 Z M1105.87,195.57 C1096.58,198.26 1085.42,187.95 1080.95,172.52 C1076.48,157.09 1080.38,142.41 1089.67,139.72 C1098.96,137.03 1110.12,147.34 1114.59,162.77 C1119.06,178.19 1115.16,192.88 1105.87,195.57 L1105.87,195.57 Z" id="Shape" fill="#000000" opacity="0.07"></path>
            <path d="M1089.67,139.72 C1080.38,142.41 1076.48,157.1 1080.95,172.52 C1085.42,187.94 1096.58,198.26 1105.87,195.57 C1115.16,192.88 1119.06,178.19 1114.59,162.77 C1110.12,147.35 1098.96,137.03 1089.67,139.72 L1089.67,139.72 Z" id="Path" fill="#000000" opacity="0.09"></path>
            <path d="M866.019,104.79 C865.949,105.05 865.879,105.3 865.799,105.56 C865.869,105.3 865.939,105.05 866.019,104.79 Z M943.5,111.35 C936.283939,98.7225123 932.896356,84.268825 933.75,69.75 C933.93,66.73 933.92,63.69 933.73,60.67 L933.59,58.42 C933.010575,49.1512305 930.485796,40.1083623 926.18,31.88 C924.910136,29.4413556 923.490764,27.0835274 921.93,24.82 L904.75,0 L804.44,0 L804.33,0.36 C797.23,16.87 801.43,36.08 814.79,48.1 L815.39,48.64 C826.692044,58.8121019 836.346943,70.6766304 844.01,83.81 L849.31,92.89 L855.61,94.18 L855.93,94.25 L866.1,96.33 L866.43,96.4 L868.62,96.85 L879.64,100.58 C881.87,101.33 883.96,102.44 885.84,103.86 L897.85,112.96 C899.58,114.27 901.42,115.45 903.33,116.49 L903.31,116.49 L903.33,116.49 C904.47,117.12 905.63,117.72 906.8,118.29 C906.95,118.36 907.09,118.43 907.24,118.5 C908.26,119 909.29,119.47 910.33,119.93 C910.45,119.98 910.58,120.04 910.7,120.09 C910.82,120.14 910.95,120.2 911.07,120.25 C911.55,120.46 912.04,120.64 912.53,120.84 C913.02,121.04 913.5,121.24 913.99,121.43 C914.13,121.48 914.27,121.54 914.41,121.59 C914.55,121.64 914.69,121.7 914.83,121.75 C915.44,121.98 916.07,122.18 916.69,122.4 C917.31,122.62 917.92,122.85 918.55,123.05 L923.77,124.74 L928.99,126.43 C930.24,126.83 931.5,127.2 932.76,127.55 C932.91,127.59 933.05,127.63 933.2,127.66 C933.35,127.7 933.49,127.74 933.64,127.77 C934.15,127.9 934.66,128.02 935.17,128.14 C935.68,128.26 936.19,128.4 936.7,128.51 C936.83,128.54 936.96,128.57 937.09,128.59 C937.22,128.62 937.35,128.65 937.48,128.67 C938.59,128.91 939.71,129.13 940.82,129.32 C940.98,129.35 941.14,129.38 941.3,129.4 C941.95,129.51 942.6,129.59 943.25,129.69 C943.9,129.79 944.55,129.9 945.2,129.98 C948.3,130.36 951.42,130.58 954.54,130.63 L943.5,111.31 L943.5,111.35 L943.5,111.35 Z M1275.05,107.94 C1252.36625,81.7627349 1236.86733,50.1446608 1230.07,16.18 L1226.84,0 L1164.44,0 L1164.44,23.15 C1164.44,49.09 1173.24,74.25 1189.39,94.54 L1214.2,125.69 C1225.23194,139.315785 1232.17688,155.788785 1234.23,173.2 C1234.35,174.21 1234.45,175.22 1234.54,176.23 C1234.71,178.25 1234.82,180.28 1234.85,182.31 C1234.89,184.34 1234.86,186.38 1234.76,188.41 C1234.27525,198.733798 1232.06817,208.903945 1228.23,218.5 C1220.64962,237.448967 1220.51031,258.562658 1227.84,277.61 L1244.14,319.98 C1244.77,321.63 1245.36,323.29 1245.92,324.96 L1249.04,328.3 L1249.06,328.32 L1250.38,329.73 L1250.38,329.75 L1255.61,335.34 L1278.74,365.25 C1281.35122,368.495288 1281.30937,373.132371 1278.64,376.33 L1272.99,383.1 L1271.79,384.54 L1275.18,387.37 C1279.89,391.3 1280.52,398.3 1276.59,403.01 L1249.7,435.32 L1251.4,450.61 C1254.62,479.61 1268.31,506.62 1290.39,525.71 C1292.49,527.52 1294.49,529.42 1296.44,531.37 L1296.44,132.62 L1275.05,107.94 L1275.05,107.94 Z" id="Shape" fill="#000000" opacity="0.07"></path>
            <path d="M1226.84,0 L1230.08,16.18 C1236.86884,50.1475338 1252.36878,81.7676799 1275.06,107.94 L1296.45,132.62 L1296.45,0 L1226.84,0 L1226.84,0 Z M810.62,697.45 C797.63244,679.266899 791.506745,657.070555 793.33,634.8 L796,602.11 C798.778243,575.689409 788.540424,549.56712 768.55,532.07 C748.430877,514.464967 738.197425,488.130634 741.15,461.56 L748.47,395.72 C749.53,386.17 748.87,376.61 746.65,367.46 L811.79,386.07 L820.52,369.04 L793.85,360.43 L793.82,360.43 L771.33,353.16 L771.31,353.16 L746.04,344.99 C743.67,344.22 741.51,343.11 739.6,341.73 C739.53,341.68 739.46,341.62 739.39,341.57 C738.07,340.59 736.87,339.49 735.79,338.28 C734.138997,336.403503 732.801792,334.272753 731.83,331.97 C729.37,331.97 727.03,330.91 725.42,329.06 L721.16,324.2 C711.15713,312.769721 704.542391,298.774873 702.06,283.79 C701.735991,281.836434 701.482493,279.871826 701.3,277.9 L701.27,277.51 C701.19,276.57 701.12,275.63 701.07,274.69 L701.07,274.57 C701.02,273.59 700.99,272.6 700.97,271.62 L700.97,271.16 C700.97,270.33 700.97,269.5 700.98,268.67 C700.98,268.49 700.98,268.31 700.99,268.12 C701.02,267.17 701.06,266.22 701.12,265.26 C701.12,265.12 701.14,264.97 701.15,264.83 C701.2,264.02 701.27,263.22 701.35,262.41 C701.37,262.16 701.4,261.91 701.43,261.66 C701.53,260.72 701.64,259.78 701.78,258.84 L707.48,218.96 C707.8,216.71 708,214.46 708.13,212.21 C708.57,204.69 708,197.19 706.4,189.92 C706.35,189.67 706.28,189.43 706.22,189.18 C705.12,184.37 703.58,179.67 701.63,175.13 C698.748491,168.397373 694.96738,162.086551 690.39,156.37 L637.59,75.98 L587.64,0 L524.6,0 L770.57,728 L832.45,728 L810.63,697.45 L810.62,697.45 L810.62,697.45 Z M710.72,410.68 C700.06,413.64 687.14,400.64 681.86,381.64 C676.58,362.64 680.94,344.84 691.6,341.88 C702.26,338.92 715.18,351.92 720.46,370.92 C725.74,389.92 721.38,407.72 710.72,410.68 Z" id="Shape" fill="#000000" opacity="0.09"></path>
            <path d="M691.59,341.88 C680.93,344.84 676.57,362.65 681.85,381.64 C687.13,400.64 700.05,413.64 710.71,410.68 C721.37,407.72 725.73,389.91 720.45,370.92 C715.17,351.92 702.25,338.92 691.59,341.88 Z" id="Path" fill="#000000" opacity="0.11"></path>
            <path d="M988.24,637.4 C991.03,617.89 990.92,598.08 987.92,578.61 L1009.1,590.16 C1019.77,595.98 1033.13,592.05 1038.95,581.38 L1057.56,547.27 C1057.78,552.8 1058.23,558.3 1058.89,563.78 L1062.95,616.58 C1063.93339,629.341157 1067.98868,641.675144 1074.77,652.53 L1086.59,671.44 C1097.11706,688.290555 1100.93225,708.47999 1097.28,728.01 L1172.45,728.01 L1156.35,679.7 C1152.51137,668.179574 1151.36869,655.931683 1153.01,643.9 L1159.77,594.37 C1162.5,578.59 1161.43,562.39 1156.66,547.11 L1206.8,486.87 L1204.13,510.86 C1201.73,532.48 1205.63,554.34 1215.36,573.8 L1234.75,612.57 C1243.72,630.52 1247.75,650.53 1246.42,670.56 L1244.46,728 L1296.46,728 L1296.46,531.35 C1294.64,529.53 1292.77,527.76 1290.83,526.06 C1268.72134,506.718259 1254.66071,479.79578 1251.42,450.6 L1249.72,435.31 L1276.61,403 C1280.54,398.29 1279.91,391.29 1275.2,387.36 L1271.81,384.53 L1133.88,549.85 C1124.2,561.45 1106.94,563.01 1095.34,553.33 L1052.23,517.36 L1033.75,553.42 C1028.38,563.9 1015.53,568.04 1005.06,562.67 L799.96,457.57 C797.07,466.56 800.87,476.56 809.41,481.22 L880.47,519.98 L873.34,541.38 C862.389976,574.221303 862.389976,609.728697 873.34,642.57 L904.47,727.99 L979.33,727.99 L988.27,637.39 L988.24,637.4 L988.24,637.4 Z M1258.08,540.34 C1266.65,537.96 1277.04,548.41 1281.29,563.69 C1285.54,578.97 1282.03,593.28 1273.46,595.66 C1264.89,598.04 1254.5,587.59 1250.25,572.31 C1246,557.03 1249.51,542.72 1258.08,540.34 Z M931.3,648.55 C919.47,650.34 907.15,633.81 903.79,611.62 C900.42,589.43 907.28,569.98 919.11,568.19 C930.94,566.4 943.26,582.93 946.62,605.12 C949.99,627.31 943.13,646.76 931.3,648.55 Z" id="Shape" fill="#000000" opacity="0.09"></path>
            <path d="M1258.07,540.34 C1249.5,542.72 1245.99,557.04 1250.24,572.31 C1254.49,587.59 1264.88,598.04 1273.45,595.66 C1282.02,593.28 1285.53,578.96 1281.28,563.69 C1277.03,548.41 1266.64,537.96 1258.07,540.34 Z" id="Path" fill="#000000" opacity="0.11"></path>
            <path d="M692.91,159.75 C696.354144,164.554552 699.2678,169.717993 701.6,175.15 C703.55,179.69 705.09,184.39 706.19,189.2 C706.25,189.45 706.32,189.69 706.37,189.94 C707.962531,197.256036 708.544616,204.755854 708.1,212.23 C707.97,214.48 707.77,216.73 707.45,218.98 L701.75,258.86 C698.493876,281.661449 705.012027,304.778189 719.7,322.52 C720.17,323.09 720.65,323.66 721.14,324.22 L725.4,329.08 C727.017871,330.927874 729.353958,331.99 731.81,331.99 C731.65,331.62 731.49,331.26 731.36,330.89 C731.34,330.82 731.31,330.76 731.29,330.69 C729.558694,325.873816 729.474285,320.619309 731.05,315.75 L754.68,242.59 L754.72,242.47 L762.61,218.05 L762.65,217.94 L762.89,217.19 L748.51,196.65 C735.639447,178.260821 730.359521,155.615168 733.77,133.43 L738.88,100.22 C742.442119,77.0588122 736.527242,53.4389535 722.47,34.69 L696.44,0 L587.64,0 L690.36,156.39 C691.24,157.49 692.09,158.61 692.91,159.75 Z" id="Path" fill="#000000" opacity="0.07"></path>
            <path d="M1076.54,228.08 C1074.01376,225.550477 1071.65225,222.861632 1069.47,220.03 C1056.33411,203.070121 1050.10988,181.764104 1052.05,160.4 L1054.82,129.95 C1054.9,129.1 1054.96,128.25 1055.02,127.4 C1055.06,126.82 1055.09,126.24 1055.11,125.66 C1055.98,105.91 1049.11,86.6 1036.28,71.56 L1023.14,56.14 C1011.59711,42.6004534 1003.13511,26.7137281 998.34,9.58 L995.64,0 L904.75,0 L921.93,24.82 C928.803593,34.7493739 932.835267,46.367236 933.59,58.42 L933.73,60.67 C933.92,63.69 933.92,66.72 933.75,69.75 C932.896356,84.268825 936.283939,98.7225123 943.5,111.35 L954.54,130.67 C955.26,130.68 955.98,130.69 956.7,130.69 L966.62,130.6 C968.97,130.58 971.31,130.94 973.55,131.66 L984.62,135.24 L986.64,136.18 L986.94,136.32 L996.35,140.71 L996.65,140.85 L1002.48,143.57 L1015.24,151.04 L1035.16,162.7 C1038.80038,164.737344 1040.499,169.059195 1039.22,173.03 L1037.44,178.55 L1029.74,202.38 L1020.56,230.8 L1020.54,230.85 L1020.52,230.9 L1017.05,241.66 C1017.58,242.04 1018.11,242.42 1018.65,242.79 C1021.99,245.08 1025.51,247.2 1029.09,249.04 L1039.81,254.54 C1043.69,256.53 1047.81,258.25 1051.95,259.7 C1059.46,250.6 1077.36,228.93 1077.36,228.93 L1076.53,228.1 L1076.54,228.08 L1076.54,228.08 Z" id="Path" fill="#000000" opacity="0.09"></path>
            <polygon id="Path" fill="#000000" points="0.56 306.63 0.44 306.27 0.44 306.67 0.56 306.63"></polygon>
            <path d="M1244.13,319.99 L1227.83,277.62 C1220.50031,258.572658 1220.63962,237.458967 1228.22,218.51 C1240.7,187.31 1235.33,151.81 1214.19,125.69 L1189.38,94.54 C1173.2242,74.2524394 1164.42827,49.0844363 1164.43,23.15 L1164.43,0 L1094.1,0 L1092.11,23.87 C1090.41731,44.2034093 1094.41284,64.6069343 1103.65,82.8 L1113.98,103.14 L1144.42,163.09 C1145.92,166.38 1147.21,169.75 1148.45,173.14 C1148.99,174.63 1149.38,176.17 1149.77,177.7 L1149.8,177.82 C1153.99,193.63 1154.35,210.38 1150.6,226.64 L1147.08,241.88 L1148.01,242.47 L1148.06,242.5 L1148.46,242.76 L1157.38,250.2 C1159.18,251.7 1160.73,253.49 1161.96,255.48 L1165.72,261.56 L1167.17,263.9 C1167.42,264.31 1167.69,264.71 1167.95,265.12 C1169.77,267.95 1171.74,270.66 1173.86,273.26 C1174.01,273.44 1174.17,273.61 1174.32,273.79 C1175.01,274.62 1175.7,275.44 1176.42,276.24 C1176.53,276.36 1176.64,276.48 1176.74,276.6 C1177.09,276.98 1177.45,277.35 1177.8,277.73 C1178.22,278.18 1178.64,278.64 1179.07,279.08 C1179.26,279.27 1179.44,279.46 1179.63,279.65 C1180.37,280.39 1181.12,281.12 1181.89,281.83 L1182.55,282.46 C1183.51,283.34 1184.5,284.21 1185.5,285.05 L1193.91,292.07 C1194.92,292.91 1195.94,293.72 1196.99,294.51 C1197.23,294.69 1197.47,294.86 1197.72,295.04 C1198.56,295.67 1199.41,296.28 1200.27,296.87 L1201.2,297.5 C1202.04,298.07 1202.89,298.61 1203.76,299.15 C1203.91,299.24 1204.06,299.34 1204.21,299.43 C1208.59743,302.12355 1213.21161,304.428967 1218,306.32 L1227.22,309.93 C1229.41,310.79 1231.44,311.99 1233.24,313.49 L1242.16,320.93 L1245.9,324.93 C1245.34,323.26 1244.75,321.6 1244.12,319.95 L1244.13,319.99 L1244.13,319.99 Z" id="Path" fill="#000000" opacity="0.09"></path>
            <path d="M1086.58,671.43 L1074.76,652.52 C1067.97724,641.665821 1063.92182,629.33147 1062.94,616.57 L1058.88,563.78 C1058.61,561.55 1058.39,559.32 1058.19,557.09 C1058.12,556.3 1058.05,555.51 1057.99,554.72 C1057.93,553.96 1057.88,553.2 1057.83,552.43 C1057.72,550.73 1057.62,549.02 1057.55,547.32 L1057.55,547.28 L1038.94,581.39 C1037.85,583.39 1036.49,585.15 1034.94,586.66 C1034.89,586.71 1034.83,586.76 1034.78,586.81 C1034.31,587.26 1033.83,587.68 1033.32,588.08 L1033.21,588.16 C1032.78,588.49 1032.34,588.81 1031.9,589.11 C1031.62,589.29 1031.35,589.47 1031.06,589.64 C1030.77,589.81 1030.48,589.98 1030.19,590.14 C1029.47,590.53 1028.73,590.89 1027.97,591.2 C1027.92,591.22 1027.88,591.24 1027.83,591.26 C1021.73319,593.714437 1014.85779,593.310865 1009.09,590.16 L987.91,578.61 C990.908433,598.08443 991.012894,617.895033 988.22,637.4 L979.28,728 L1097.26,728 C1100.90817,708.469995 1097.09327,688.282037 1086.57,671.43 L1086.58,671.43 Z M1246.65,663.05 C1246.65,661.8 1246.63,660.55 1246.59,659.31 C1246.47,655.57 1246.16,651.84 1245.66,648.14 C1245.36,645.9 1244.99,643.67 1244.56,641.46 C1244.47,641.02 1244.39,640.57 1244.29,640.13 C1242.32,630.61 1239.12,621.34 1234.73,612.57 L1225.68,594.48 L1215.34,573.8 C1209.87,562.85 1206.24,551.15 1204.54,539.15 C1204.16,536.48 1203.88,533.8 1203.69,531.12 C1203.22202,524.36774 1203.36259,517.587065 1204.11,510.86 L1205.44,498.86 L1206.77,486.86 L1181.7,516.98 L1156.63,547.1 C1157.82,550.92 1158.78,554.8 1159.51,558.71 C1160.06,561.65 1160.47,564.6 1160.76,567.57 C1161.05,570.54 1161.2,573.52 1161.22,576.5 C1161.22,577.49 1161.22,578.49 1161.2,579.48 C1161.09,584.45 1160.6,589.42 1159.75,594.35 L1152.99,643.89 C1151.34869,655.921683 1152.49137,668.169574 1156.33,679.69 L1172.43,728 L1244.43,728 L1246.39,670.56 C1246.56,668.06 1246.64,665.55 1246.64,663.06 L1246.65,663.05 L1246.65,663.05 Z" id="Shape" fill="#000000" opacity="0.07"></path>
            <path d="M815.38,48.65 L814.78,48.11 C801.42,36.09 797.21,16.88 804.32,0.37 L804.44,0 L696.44,0 L722.45,34.68 C736.511826,53.4267709 742.42719,77.048577 738.86,100.21 L733.75,133.42 C730.340783,155.60512 735.6206,178.250306 748.49,196.64 L762.87,217.18 L802.39,94.83 C803.25,92.16 805.28,89.92 807.96,89.09 C809.13,88.73 810.38,88.61 811.66,88.77 L849.3,92.89 L844,83.81 C836.34,70.67 826.68,58.81 815.38,48.64 L815.38,48.65 L815.38,48.65 Z" id="Path" fill="#000000" opacity="0.09"></path>
            <g id="Group" opacity="0.02" transform="translate(0.440000, 0.220000)" fill="#000000">
                <path d="M542.229,190.833 L466.399,216.324 C464.305021,217.027897 463.178126,219.296013 463.882,221.39 L573.49,547.46 C574.193897,549.553979 576.462013,550.680874 578.556,549.977 L654.387,524.487 C656.480979,523.783103 657.607874,521.514987 656.904,519.421 L547.295,193.35 C546.591103,191.256021 544.322987,190.129126 542.229,190.833 L542.229,190.833 Z M656.95,532.02 L581.12,557.51 C579.03,558.21 577.9,560.48 578.6,562.58 L634.22,728 L727.06,728 L662.01,534.54 C661.303793,532.445861 659.035734,531.318542 656.94,532.02 L656.95,532.02 Z M259.038,252.27 L183.208,277.76 C181.114021,278.463897 179.987126,280.732013 180.691,282.826 L290.299,608.897 C291.002897,610.990979 293.271013,612.117874 295.365,611.414 L371.195,585.923 C373.288979,585.219103 374.415874,582.950987 373.712,580.857 L264.104,254.787 C263.400103,252.693021 261.131987,251.566126 259.038,252.27 L259.038,252.27 Z M295.42,624.04 L330.38,728.01 L423.22,728.01 L378.84,596 C378.133793,593.905861 375.865734,592.778542 373.77,593.48 L297.94,618.97 C295.85,619.67 294.72,621.94 295.42,624.04 L295.42,624.04 Z M319.448,130.682 L243.618,156.172 C241.524021,156.875897 240.397126,159.144013 241.101,161.238 L350.709,487.309 C351.412897,489.402979 353.681013,490.529874 355.775,489.826 L431.605,464.336 C433.698979,463.632103 434.825874,461.363987 434.122,459.27 L324.514,133.199 C323.810103,131.105021 321.541987,129.978126 319.448,130.682 L319.448,130.682 Z M319.41,118.01 L279.73,-2.72837308e-14 L186.89,-2.72837308e-14 L235.99,146.05 C236.69,148.14 238.96,149.27 241.06,148.57 L316.89,123.08 C318.98,122.38 320.11,120.11 319.41,118.01 L319.41,118.01 Z M474.14,276.99 L381.02,-2.72837308e-14 L288.18,-2.72837308e-14 L390.73,305.03 C391.43,307.12 393.7,308.25 395.8,307.55 L471.63,282.06 C473.72,281.36 474.85,279.09 474.15,276.99 L474.14,276.99 L474.14,276.99 Z M355.82,502.45 L431.66,728.01 L524.5,728.01 L439.24,474.41 C438.533793,472.315861 436.265734,471.188542 434.17,471.89 L358.34,497.38 C356.25,498.08 355.12,500.35 355.82,502.45 L355.82,502.45 Z M161.15,551.02 L51.52,224.95 C50.8137932,222.855861 48.5457341,221.728542 46.45,222.43 L0,238.06 L0,347.84 L77.74,579.06 C78.44,581.15 80.71,582.28 82.81,581.58 L158.64,556.09 C160.73,555.39 161.86,553.12 161.16,551.02 L161.15,551.02 L161.15,551.02 Z M46.43,209.79 L0,71.71 L0,229.62 L43.91,214.86 C46,214.16 47.13,211.89 46.43,209.79 L46.43,209.79 Z M82.84,594.23 L127.82,728.01 L220.66,728.01 L166.25,566.19 C165.543793,564.095861 163.275734,562.968542 161.18,563.67 L85.35,589.16 C83.26,589.86 82.13,592.13 82.83,594.23 L82.84,594.23 L82.84,594.23 Z M109.402,108.445 L33.572,133.936 C31.4780211,134.639897 30.3511263,136.908013 31.055,139.002 L140.663,465.072 C141.366897,467.165979 143.635013,468.292874 145.729,467.589 L221.559,442.099 C223.652979,441.395103 224.779874,439.126987 224.076,437.033 L114.468,110.962 C113.764103,108.868021 111.495987,107.741126 109.402,108.445 Z M109.38,95.78 L77.17,-2.72837308e-14 L0,-2.72837308e-14 L0,46.6 L25.96,123.82 C26.66,125.91 28.93,127.04 31.03,126.34 L106.86,100.85 C108.95,100.15 110.08,97.88 109.38,95.78 Z M542.19,178.15 L482.3,-2.72837308e-14 L389.46,-2.72837308e-14 L458.78,206.19 C459.48,208.28 461.75,209.41 463.85,208.71 L539.68,183.22 C541.77,182.52 542.9,180.25 542.2,178.15 L542.19,178.15 Z M0.05,373.08 L0,373.1 L0,649.08 L26.54,728.01 L48.95,728.01 L108.43,708.01 C110.52,707.31 111.65,705.04 110.95,702.94 L0.05,373.08 Z M74.05,728 L119.37,728 L116.04,718.1 C115.333793,716.005861 113.065734,714.878542 110.97,715.58 L74.04,728 L74.05,728 Z M259.01,239.6 L178.45,-2.72837308e-14 L85.61,-2.72837308e-14 L175.59,267.64 C176.29,269.73 178.56,270.86 180.66,270.16 L256.49,244.67 C258.58,243.97 259.71,241.7 259.01,239.6 Z M145.79,480.22 L229.1,728 L321.94,728 L229.2,452.17 C228.493793,450.075861 226.225734,448.948542 224.13,449.65 L148.3,475.14 C146.21,475.84 145.08,478.11 145.78,480.21 L145.79,480.22 L145.79,480.22 Z M474.169,289.674 L398.338,315.165 C396.244021,315.868897 395.117126,318.137013 395.821,320.231 L505.43,646.301 C506.133897,648.394979 508.402013,649.521874 510.496,648.818 L586.326,623.328 C588.419979,622.624103 589.546874,620.355987 588.843,618.262 L479.235,292.191 C478.531103,290.097021 476.262987,288.970126 474.169,289.674 L474.169,289.674 Z M510.55,661.43 L532.93,728.01 L625.77,728.01 L593.96,633.39 C593.253793,631.295861 590.985734,630.168542 588.89,630.87 L513.06,656.36 C510.97,657.06 509.84,659.33 510.54,661.43 L510.55,661.43 L510.55,661.43 Z M18.56,728 L0,672.81 L0,728 L18.56,728 Z" id="Shape"></path>
            </g>
            <polygon id="Path" fill="#000000" opacity="0.05" points="524.6 0 515.55 0 761.51 728 770.56 728"></polygon>
            <polygon id="Path" fill="#000000" opacity="0.07" points="490.34 0 736.31 728 761.51 728 515.55 0"></polygon>
            <path d="M1278.73,365.48 L1257.34,337.82 C1257.68,337.43 1258.02,337.04 1258.35,336.65 C1259.89,334.8 1259.78,332.08 1258.14,330.32 L1249.38,320.89 C1247.35,318.7 1243.87,318.89 1242.03,321.23 C1227.59,339.56 1203.1,348.78 1178.75,342.29 C1149.44,334.48 1130.24,305.7 1134.36,275.64 C1136.02,263.56 1141.05,252.91 1148.32,244.41 C1150.22,242.19 1149.64,238.78 1147.15,237.24 L1136.24,230.45 C1134.22,229.19 1131.57,229.59 1130.03,231.4 L1098.33,214.97 C1094.67138,212.979934 1090.11654,213.850712 1087.45,217.05 C1087.45,217.05 1059.46,250.81 1051.95,259.91 C1052.73,260.18 1053.5,260.46 1054.28,260.71 C1055.83,261.21 1057.4,261.67 1058.97,262.09 C1062.3,262.98 1065.68,263.7 1069.1,264.22 L1078.94,265.73 L1079.87,265.87 C1082.42,266.26 1084.89,267.06 1087.19,268.24 L1096.55,273.03 L1111.45,283.71 C1111.45,307.96 1122.23,330.74 1139.99,346.28 C1139.85,346.56 1052.2,517.59 1052.2,517.59 L1095.31,553.56 C1106.91,563.24 1124.17,561.68 1133.85,550.08 L1278.63,376.56 C1281.29937,373.362371 1281.34122,368.725288 1278.73,365.48 L1278.73,365.48 Z" id="Path" fill="#BBBBBB"></path>
            <path d="M1233.26,313.75 C1231.46,312.25 1229.42,311.04 1227.24,310.19 L1218.02,306.58 C1214.44259,305.170155 1210.96174,303.52661 1207.6,301.66 L1207.62,301.66 L1204.28,305.66 L1194.27,317.65 L1192.96,319.22 C1192.1,320.26 1190.56,320.39 1189.52,319.53 L1159.53,294.51 C1158.49,293.65 1158.36,292.11 1159.22,291.07 L1160.53,289.5 L1168.8,279.59 L1173.87,273.51 C1171.74634,270.911624 1169.77311,268.193847 1167.96,265.37 C1167.7,264.96 1167.43,264.56 1167.18,264.15 L1165.73,261.81 L1161.97,255.72 C1160.74,253.72 1159.19,251.94 1157.38,250.44 L1148.46,243 L1147.8,243.79 L1147.71,243.89 L1145.33,246.74 C1144.87,247.29 1144.44,247.85 1144,248.4 C1139.43,254.19 1135.87,260.41 1133.37,266.83 C1129.42,276.94 1128.09,287.52 1129.55,297.68 L1140.32,306.23 L1140.38,306.28 L1142.57,308.02 L1148.5,312.73 C1152.09004,315.576833 1153.17011,320.562706 1151.08,324.64 L1149.8,327.15 L1147.68,331.29 C1148.32,331.87 1148.98,332.45 1149.66,333.02 L1153.41,336.15 C1174.07,353.38 1200.23,353.4 1221.43,340.32 C1227.86,336.36 1233.83,331.2 1239.05,324.95 L1239.19,324.78 L1242.18,321.2 L1233.26,313.76 L1233.26,313.75 L1233.26,313.75 Z" id="Path" fill="#737373"></path>
            <path d="M1207.59,301.65 C1206.45,301.02 1205.33,300.36 1204.22,299.68 C1204.08,299.6 1203.94,299.51 1203.8,299.42 C1202.84,298.82 1201.89,298.21 1200.95,297.57 C1200.73,297.42 1200.5,297.27 1200.28,297.12 C1199.42,296.52 1198.57,295.91 1197.73,295.29 C1197.49,295.11 1197.24,294.94 1197.01,294.76 C1195.97,293.97 1194.94,293.16 1193.93,292.32 L1185.52,285.3 C1184.51,284.46 1183.53,283.6 1182.57,282.71 L1181.91,282.08 C1181.14,281.37 1180.39,280.64 1179.65,279.9 C1179.46,279.71 1179.28,279.52 1179.09,279.33 C1178.66,278.89 1178.24,278.43 1177.82,277.98 C1177.47,277.6 1177.1,277.24 1176.76,276.85 C1176.65,276.73 1176.54,276.61 1176.44,276.49 C1175.72,275.69 1175.03,274.87 1174.34,274.04 C1174.19,273.86 1174.03,273.69 1173.88,273.51 L1168.81,279.59 L1160.54,289.5 L1159.23,291.07 C1158.37,292.11 1158.51,293.64 1159.54,294.51 L1189.53,319.53 C1190.56,320.39 1192.1,320.25 1192.97,319.22 L1194.28,317.65 L1204.29,305.66 L1207.63,301.66 L1207.61,301.66 L1207.59,301.65 L1207.59,301.65 Z" id="Path" fill="#FFFFFF"></path>
            <path d="M1035.9,160.74 L1002.88,142.38 L997.1,139.53 L997.1,139.57 L997.1,139.53 L982.86,132.51 L973.66,129.56 C971.4,128.84 969.04,128.48 966.67,128.51 L965.8,128.51 L956.65,128.63 C953.47,128.67 950.3,128.52 947.15,128.21 C945.66,128.07 944.17,127.88 942.69,127.66 L941.2,132.31 L935.74,149.33 C935.56111,149.888372 935.167665,150.352771 934.646272,150.620969 C934.124879,150.889168 933.518279,150.939181 932.96,150.76 L904.34,141.59 L900.5,140.36 L900.46,140.36 L899.33,139.99 C898.771628,139.81111 898.307229,139.417665 898.039031,138.896272 C897.770832,138.374879 897.720819,137.768279 897.9,137.21 L900.01,130.62 L900.05,130.5 L904.29,117.26 L904.84,115.54 C903.51,114.86 902.19,114.14 900.89,113.39 C900.38,113.09 899.87,112.78 899.36,112.47 C899.35,112.47 899.33,112.45 899.32,112.45 C898.392403,111.890894 897.475569,111.314122 896.57,110.72 C895.34,109.91 894.12,109.08 892.92,108.21 L884.84,102.3 C882.93,100.9 880.8,99.82 878.54,99.09 L869.34,96.14 L847.32,92.54 L809.78,88.29 C806.65,87.94 803.66,89.27 801.81,91.65 C801.19,92.45 800.7,93.36 800.38,94.37 L799.55,96.96 L728.22,319.53 C724.92,329.83 730.59,340.86 740.9,344.16 L943.21,409 C953.51,412.3 964.54,406.63 967.84,396.32 L1039.21,173.62 L1040,171.16 C1041.28147,167.151614 1039.55753,162.795745 1035.88,160.75 L1035.9,160.74 Z" id="Path" fill="#CDCDCD"></path>
            <path d="M940.471,127.28 C936.501,126.59 932.511,125.64 928.701,124.42 L918.151,121.04 C914.631,119.91 911.121,118.51 907.751,116.94 C907.201,116.68 906.671,116.41 906.131,116.15 C905.711,115.95 905.281,115.75 904.871,115.54 L904.321,117.26 L900.081,130.5 L900.041,130.62 L897.931,137.21 C897.561,138.37 898.201,139.61 899.361,139.99 L900.491,140.35 L900.531,140.35 L904.371,141.59 L932.991,150.76 C934.151,151.13 935.391,150.49 935.771,149.33 L941.231,132.31 L942.721,127.66 C941.981,127.55 941.231,127.41 940.491,127.28 L940.471,127.28 L940.471,127.28 Z" id="Path" fill="#FFFFFF"></path>
            <path d="M848.82,92.27 C844.97,104.41 844,117.67 846.59,131.12 C854.59,172.61 894.42,200.65 936.18,194.23 C966.7,189.54 990.35,168.04 999.33,140.67 C1000.04,138.49 999,136.12 996.93,135.13 L985.87,129.83 C983.31,128.6 980.29,129.98 979.47,132.7 C973.07,153.99 954.59,170.7 930.73,173.46 C902.02,176.78 874.96,157.97 868.12,129.89 C865.37,118.6 866.12,107.41 869.59,97.34 C870.5,94.71 868.79,91.89 866.05,91.39 L854.01,89.18 C851.75,88.77 849.5,90.08 848.81,92.28 L848.82,92.27 L848.82,92.27 Z" id="Path" fill="#BFBFBF"></path>
            <path d="M868.13,129.89 C874.97,157.97 902.03,176.78 930.74,173.46 C954.59,170.7 973.07,153.99 979.48,132.7 C979.6,132.29 979.78,131.92 979.99,131.58 L973.67,129.56 C971.41,128.84 969.05,128.48 966.68,128.51 L965.81,128.51 L956.66,128.63 C953.48,128.67 950.31,128.52 947.16,128.21 C945.67,128.07 944.18,127.88 942.7,127.66 L941.21,132.31 L935.75,149.33 C935.57111,149.888372 935.177665,150.352771 934.656272,150.620969 C934.134879,150.889168 933.528279,150.939181 932.97,150.76 L904.35,141.59 L900.51,140.36 L900.47,140.36 L899.34,139.99 C898.781628,139.81111 898.317229,139.417665 898.049031,138.896272 C897.780832,138.374879 897.730819,137.768279 897.91,137.21 L900.02,130.62 L900.06,130.5 L904.3,117.26 L904.85,115.54 C903.52,114.86 902.2,114.14 900.9,113.39 C900.39,113.09 899.88,112.78 899.37,112.47 C899.36,112.47 899.34,112.45 899.33,112.45 C898.400493,111.888642 897.480366,111.311896 896.57,110.72 C895.34,109.91 894.12,109.08 892.92,108.21 L884.84,102.3 C882.93,100.9 880.8,99.82 878.54,99.09 L869.81,96.29 C869.78,96.64 869.71,97 869.59,97.35 C866.11,107.42 865.37,118.61 868.12,129.9 L868.13,129.89 L868.13,129.89 Z" id="Path" fill="#A4A4A4"></path>
            <path d="M727.96,320.59 C725.36,330.58 730.96,340.96 740.91,344.15 L943.22,408.99 C953.17,412.18 963.77,406.98 967.46,397.35 C967.59,397.01 967.74,396.67 967.85,396.32 L1039.22,173.62 L1040.01,171.16 C1041.29147,167.151614 1039.56753,162.795745 1035.89,160.75 L1027.11,155.87 L958.58,371.08 C955.82,379.74 947.15,385.08 938.17,383.65 L892.27,376.32 C872.255111,373.121125 853.050557,366.070965 835.72,355.56 L815.34,343.2 C789.053346,327.258711 758.659234,319.399364 727.94,320.6 L727.96,320.59 L727.96,320.59 Z" id="Path" fill="#FFFFFF" opacity="0.15"></path>
            <path d="M1258.14,330.31 L1249.38,320.88 C1247.35,318.69 1243.87,318.88 1242.03,321.22 C1227.59,339.55 1203.1,348.77 1178.75,342.28 C1149.44,334.47 1130.24,305.69 1134.36,275.63 C1136.02,263.55 1141.05,252.9 1148.32,244.4 C1150.22,242.18 1149.64,238.77 1147.15,237.23 L1136.24,230.44 C1134.19,229.16 1131.49,229.59 1129.97,231.46 C1121.54,241.83 1115.48,254.41 1112.84,268.55 C1107.29,298.25 1118.57,327.52 1139.99,346.27 C1139.85,346.55 1139.71,346.82 1139.57,347.1 L1052.21,517.58 L1071.35,533.55 L1105.19,493.03 C1106.27,491.73 1106.57,490.03 1106.12,488.52 C1105.86,487.62 1105.34,486.79 1104.57,486.15 L1091.09,474.9 L1104.93,448.29 L1123.32,463.63 C1125.39114,465.358428 1128.47124,465.080861 1130.2,463.01 L1133.33,459.26 C1135.05843,457.188862 1134.78086,454.10876 1132.71,452.38 L1111.86,434.99 L1118.78,421.69 L1142.09,441.14 C1144.16114,442.868428 1147.24124,442.590861 1148.97,440.52 L1158.35,429.27 C1160.07843,427.198862 1159.80086,424.11876 1157.73,422.39 L1130.32,399.52 L1153.14,355.68 C1160.14,359.71 1167.82,362.78 1176.06,364.65 C1207.67,371.81 1239.05,359.91 1258.35,336.63 C1259.89,334.78 1259.78,332.06 1258.14,330.3 L1258.14,330.31 L1258.14,330.31 Z" id="Path" fill="#A0A0A0"></path>
            <path d="M1148.51,312.74 L1116.31,287.18 L1110.61,283.1 L1110.61,283.15 L1110.61,283.1 L1096.56,273.04 L1087.2,268.25 C1084.90354,267.070992 1082.4317,266.270685 1079.88,265.88 L1078.95,265.74 L1069.11,264.23 C1065.69,263.71 1062.31,262.98 1058.98,262.1 C1057.4,261.68 1055.84,261.22 1054.29,260.72 L1051.87,265.45 L1043,282.76 C1042.71087,283.327485 1042.20745,283.756302 1041.60121,283.951501 C1040.99497,284.1467 1040.33592,284.092175 1039.77,283.8 L1010.66,268.88 L1006.75,266.88 L1006.71,266.86 L1005.56,266.27 C1004.99252,265.980873 1004.5637,265.477454 1004.3685,264.871211 C1004.1733,264.264968 1004.22782,263.605921 1004.52,263.04 L1007.95,256.34 L1008.01,256.22 L1014.91,242.75 L1015.81,241 C1014.5,240.03 1013.21,239.03 1011.95,238 C1011.45,237.59 1010.96,237.17 1010.47,236.75 C1010.46,236.74 1010.44,236.73 1010.43,236.72 C1009.53,235.95 1008.65,235.17 1007.78,234.38 C1006.59649,233.294894 1005.43948,232.181233 1004.31,231.04 L996.68,223.26 C994.87,221.42 992.78,219.88 990.48,218.7 L981.12,213.91 L958.11,206.15 L918.55,194.94 C915.25,194.01 911.8,194.91 909.4,197.13 C908.572478,197.892097 907.888318,198.796408 907.38,199.8 L906.03,202.43 L790.03,428.8 C784.66,439.28 788.8,452.12 799.28,457.49 L1005.04,562.93 C1015.52,568.3 1028.37,564.16 1033.73,553.68 L1149.8,327.18 L1151.08,324.67 C1153.17011,320.592706 1152.09004,315.606833 1148.5,312.76 L1148.51,312.74 Z" id="Path" fill="#BEBEBE"></path>
            <path d="M851.12,246.49 L795.28,228.46 L790.22,244.13 L783.26,265.68 C783.15,266.01 783.06,266.34 782.98,266.68 C782.88,267.09 782.8,267.51 782.74,267.93 C782.65,268.5 782.59,269.07 782.57,269.64 L782.57,269.71 C782.56,270.05 782.57,270.4 782.57,270.74 C782.57,270.86 782.59,270.97 782.59,271.08 C782.6,271.31 782.62,271.53 782.64,271.76 C782.66,271.9 782.68,272.03 782.69,272.17 L782.78,272.77 L782.87,273.2 C782.91,273.39 782.95,273.58 783,273.77 C783.04,273.92 783.08,274.06 783.12,274.2 C783.17,274.39 783.23,274.57 783.29,274.76 C783.34,274.9 783.38,275.04 783.43,275.18 C783.5,275.37 783.57,275.56 783.65,275.74 C783.7,275.87 783.75,276 783.81,276.13 C783.9,276.34 784.01,276.55 784.11,276.76 C784.16,276.86 784.2,276.96 784.26,277.05 L784.38,277.26 C784.59,277.64 784.81,278.01 785.06,278.37 C785.1,278.43 785.14,278.5 785.19,278.57 C785.36,278.82 785.55,279.05 785.73,279.29 C785.85,279.44 785.98,279.59 786.11,279.74 C786.38,280.05 786.65,280.37 786.95,280.66 C788.28,281.97 789.68,283.19 791.14,284.32 C791.69,284.74 792.24,285.15 792.8,285.55 C800.717443,291.142721 810.156737,294.178649 819.85,294.25 C820.5,294.25 821.14,294.25 821.79,294.22 C822.72,294.19 823.64,294.13 824.57,294.04 C825.49,293.95 826.42,293.84 827.34,293.7 C828.03,293.6 828.7,293.44 829.35,293.25 C829.79,293.12 830.21,292.96 830.63,292.79 C830.73,292.75 830.84,292.7 830.94,292.66 C831.15,292.57 831.35,292.47 831.55,292.37 C831.95,292.17 832.34,291.96 832.73,291.73 C832.92,291.62 833.1,291.51 833.28,291.39 C833.39,291.32 833.5,291.24 833.61,291.16 C833.9,290.96 834.17,290.74 834.44,290.52 C834.52,290.45 834.61,290.39 834.69,290.31 C835.02,290.03 835.33,289.73 835.63,289.42 C835.73,289.32 835.83,289.21 835.92,289.1 C836.12,288.88 836.32,288.66 836.5,288.43 C836.62,288.29 836.73,288.14 836.84,288 C837.01,287.77 837.17,287.54 837.33,287.3 C837.47,287.09 837.6,286.88 837.73,286.67 C837.89,286.4 838.04,286.12 838.19,285.84 C838.34,285.54 838.49,285.24 838.62,284.93 C838.79,284.53 838.94,284.13 839.08,283.72 L851.1,246.49 L851.12,246.49 L851.12,246.49 Z" id="Path" fill="#A8A8A8"></path>
            <path d="M1087.2,268.23 C1084.90354,267.050992 1082.4317,266.250685 1079.88,265.86 L1078.95,265.72 L1069.11,264.21 C1065.69,263.69 1062.31,262.96 1058.98,262.08 C1057.4,261.66 1055.84,261.2 1054.29,260.7 L1051.87,265.43 L1043,282.74 C1042.71087,283.307485 1042.20745,283.736302 1041.60121,283.931501 C1040.99497,284.1267 1040.33592,284.072175 1039.77,283.78 L1010.66,268.86 L1006.75,266.86 L1006.71,266.84 L1005.56,266.25 C1004.99252,265.960873 1004.5637,265.457454 1004.3685,264.851211 C1004.1733,264.244968 1004.22782,263.585921 1004.52,263.02 L1007.95,256.32 L1008.01,256.2 L1014.91,242.73 L1015.81,240.98 C1014.5,240.01 1013.21,239.01 1011.95,237.98 C1011.45,237.57 1010.96,237.15 1010.47,236.73 C1010.46,236.72 1010.44,236.71 1010.43,236.7 C1009.53,235.93 1008.65,235.15 1007.78,234.36 C1006.59649,233.274894 1005.43948,232.161233 1004.31,231.02 L996.68,223.24 C994.87,221.4 992.78,219.86 990.48,218.68 L981.12,213.89 L980.92,214.28 L978.7,218.61 L976.99,221.95 C976.31,223.28 975.7,224.62 975.12,225.97 C967.62,243.4 968.38,262.55 975.87,278.77 C976.49,280.12 977.17,281.45 977.88,282.76 C978.59,284.07 979.36,285.35 980.17,286.61 C980.98,287.87 981.83,289.1 982.73,290.31 C983.63,291.52 984.57,292.69 985.56,293.84 C986.735056,295.203733 987.966112,296.518193 989.25,297.78 C990.54,299.05 991.89,300.26 993.29,301.43 C993.99,302.01 994.71,302.58 995.44,303.14 C996.05,303.61 996.67,304.06 997.3,304.51 C997.93,304.96 998.57,305.4 999.22,305.82 C1001.11,307.05 1003.07,308.2 1005.12,309.25 C1005.47,309.43 1005.83,309.59 1006.18,309.76 C1007.83,310.57 1009.49,311.32 1011.16,311.97 C1013.2,312.77 1015.26,313.45 1017.34,314.03 C1019.42,314.61 1021.51,315.08 1023.6,315.44 C1024.65,315.62 1025.7,315.78 1026.75,315.91 C1028.85,316.17 1030.95,316.32 1033.05,316.37 C1034.1,316.4 1035.15,316.4 1036.19,316.37 C1039.33,316.29 1042.44,315.99 1045.52,315.47 C1049.90782,314.718481 1054.20699,313.51887 1058.35,311.89 C1060.72,310.96 1063.04,309.89 1065.29,308.69 C1066.79,307.89 1068.26,307.03 1069.7,306.11 C1071.86,304.73 1073.94,303.22 1075.94,301.57 C1077.94,299.92 1079.85,298.14 1081.66,296.24 C1083.482,294.32239 1085.18517,292.295282 1086.76,290.17 C1087.81,288.75 1088.8,287.28 1089.75,285.76 C1090.52,284.52 1091.25,283.24 1091.95,281.94 C1092.1,281.66 1092.26,281.39 1092.4,281.11 L1092.82,280.28 L1094.57,276.87 L1096.53,273.04 L1087.17,268.25 L1087.2,268.23 L1087.2,268.23 Z" id="Path" fill="#7E7E7E"></path>
            <path d="M1051.96,259.91 C1047.82,258.47 1043.71,256.74 1039.82,254.75 L1029.1,249.25 C1025.52,247.41 1022,245.29 1018.66,243 C1018.12,242.63 1017.59,242.24 1017.06,241.87 C1016.65,241.58 1016.22,241.29 1015.82,240.99 L1014.92,242.74 L1008.02,256.21 L1007.96,256.33 L1004.53,263.03 C1003.93,264.21 1004.39,265.66 1005.57,266.26 L1006.72,266.85 L1006.76,266.87 L1010.67,268.87 L1039.78,283.79 C1040.96,284.39 1042.41,283.93 1043.01,282.75 L1051.88,265.44 L1054.3,260.71 C1053.52,260.46 1052.75,260.18 1051.97,259.91 L1051.96,259.91 L1051.96,259.91 Z" id="Path" fill="#FFFFFF"></path>
            <path d="M804.971,211.14 C804.691,211.11 804.411,211.1 804.131,211.12 C802.191,211.25 800.431,212.53 799.791,214.5 L798.291,219.15 L797.961,220.18 L795.291,228.45 L851.131,246.48 L851.201,246.26 L851.601,245.01 L853.091,240.39 L855.631,232.52 C855.731,232.23 855.781,231.93 855.821,231.63 C855.831,231.52 855.831,231.42 855.841,231.31 C855.851,231.13 855.861,230.94 855.841,230.76 C855.841,230.62 855.821,230.49 855.801,230.36 C855.781,230.22 855.751,230.09 855.721,229.95 C855.681,229.79 855.651,229.64 855.601,229.49 C855.571,229.4 855.531,229.31 855.501,229.23 C855.141,228.34 854.531,227.55 853.721,227 C853.721,227 853.701,226.99 853.691,226.98 C853.671,226.96 853.641,226.95 853.621,226.93 C853.541,226.87 853.471,226.81 853.391,226.77 C853.321,226.73 853.251,226.71 853.181,226.68 C852.961,226.57 852.731,226.45 852.481,226.37 L805.951,211.34 C805.631,211.24 805.301,211.17 804.971,211.13 L804.971,211.14 L804.971,211.14 Z" id="Path" fill="#E5E6E6"></path>
            <path d="M959.75,206.1 C953.47,218.45 950.07,232.52 950.48,247.42 C951.73,293.39 989.53,330.54 1035.51,331.04 C1069.11,331.41 1098.32,312.5 1112.8,284.7 C1113.95,282.49 1113.25,279.76 1111.21,278.33 L1100.27,270.68 C1097.74,268.91 1094.25,269.85 1092.89,272.63 C1082.25,294.35 1059.44,309.03 1033.34,307.77 C1001.93,306.25 976.2,281.26 973.82,249.9 C972.87,237.29 975.65,225.4 981.16,215.21 C982.6,212.54 981.27,209.22 978.42,208.19 L965.88,203.69 C963.52,202.84 960.88,203.86 959.75,206.09 L959.75,206.1 L959.75,206.1 Z" id="Path" fill="#A6A6A6"></path>
            <path d="M789.541,429.87 C784.991,440.13 789.161,452.28 799.281,457.46 L1005.04,562.9 C1015.16,568.08 1027.46,564.38 1033.13,554.69 C1033.33,554.34 1033.55,554.01 1033.73,553.65 L1149.8,327.15 L1151.08,324.64 C1153.17011,320.562706 1152.09004,315.576833 1148.5,312.73 L1139.94,305.94 L1028.25,524.89 C1023.76,533.7 1013.49,537.9 1004.11,534.78 L956.121,518.78 C935.195773,511.80107 915.821766,500.832088 899.071,486.48 L879.381,469.6 C853.976226,447.828702 822.730092,434.008765 789.531,429.86 L789.541,429.87 L789.541,429.87 Z" id="Path" fill="#CDCDCD"></path>
            <path d="M863.45,451.27 L901.79,438.91 L901.81,438.91 L1007.2,404.93 C1000.36,394.37 991.29,385.1 980.19,377.94 L976.54,379.12 L932.91,393.19 L904.92,402.21 L904.89,402.21 L845.62,421.32 C845.27,422.21 844.94,423.11 844.62,424.01 C844.62,424.02 844.62,424.03 844.61,424.04 C840.620335,435.243595 838.870535,447.121847 839.46,459 L863.4,451.28 L863.44,451.28 L863.45,451.27 L863.45,451.27 Z" id="Path" fill="#F5F5F5"></path>
            <path d="M876.5,497.03 L883.62,494.73 L883.73,494.69 L924.29,481.62 L924.36,481.6 L993.49,459.31 L1021.8,450.18 C1021.24871,439.07341 1018.68371,428.159443 1014.23,417.97 C1012.24611,413.434435 1009.89845,409.066847 1007.21,404.91 L901.82,438.89 L901.8,438.89 L863.46,451.26 L863.42,451.26 L839.48,458.99 C839.83,466.08 841.05,473.08 843.01,479.86 L843.08,479.9 L876.51,497.03 L876.5,497.03 L876.5,497.03 Z" id="Path" fill="#E2E2E2"></path>
            <path d="M974.42,534.65 C989.95,526.18 1003.2,513.15 1011.88,496.22 C1013.29,493.47 1014.54,490.68 1015.65,487.87 L954.79,507.49 L954.74,507.51 L919.28,518.94 L961.39,540.52 C965.87,538.92 970.22,536.95 974.41,534.66 L974.43,534.66 L974.42,534.65 Z" id="Path" fill="#D5D5D5"></path>
            <path d="M904.93,402.21 L932.92,393.19 L976.55,379.12 L980.2,377.94 C979.3,377.36 978.37,376.81 977.44,376.25 C975.75,375.24 974.04,374.27 972.27,373.36 C950.68,362.3 926.75,360.67 905.17,366.96 L905.14,366.96 C896.949394,369.344274 889.130906,372.858049 881.91,377.4 C868.52,385.84 857.15,397.86 849.41,412.96 C848.018226,415.680337 846.760063,418.466986 845.64,421.31 L904.91,402.2 L904.94,402.2 L904.93,402.21 L904.93,402.21 Z" id="Path" fill="#E5E6E6"></path>
            <path d="M839.48,459 L856.95,453.37 C851.45,450.03 845.78,447.01 839.95,444.31 C839.4,449.21 839.24,454.13 839.48,459 Z" id="Path" fill="#FFFFFF" opacity="0.35"></path>
            <path d="M879.39,469.61 C872.34,463.56 864.82,458.16 856.95,453.37 L839.48,459 C839.83,466.09 841.05,473.09 843.01,479.87 L843.08,479.91 L876.51,497.04 L883.63,494.74 L883.74,494.7 L901.91,488.84 C900.96,488.06 900.02,487.28 899.09,486.48 L879.4,469.6 L879.39,469.61 L879.39,469.61 Z" id="Path" fill="#E5E5E5"></path>
            <path d="M974.42,534.65 C977.91,532.75 981.28,530.6 984.51,528.24 L956.13,518.78 C950.54,516.92 945.07,514.76 939.72,512.34 L919.26,518.94 L947.18,533.25 L961.38,540.52 C965.86,538.92 970.21,536.95 974.4,534.66 L974.42,534.66 L974.42,534.65 L974.42,534.65 Z" id="Path" fill="#DCDCDC"></path>
        </g>
    </g>
</svg>